0
SECTION
2
HEADER
9
$ACADVER
1
AC1009
9
$INSBASE
10
0.000000
20
0.000000
30
0.000000
9
$EXTMIN
10
0.000000
20
0.000000
30
0.000000
9
$EXTMAX
10
12000.000000
20
7300.000000
30
0.000000
0
ENDSEC
0
SECTION
2
TABLES
0
TABLE
2
LTYPE
70
1
0
LTYPE
2
CONTINUOUS
70
0
3
Solid line
72
65
73
0
40
0.000000
0
ENDTAB
0
TABLE
2
STYLE
70
1
0
STYLE
2
STANDARD
70
0
40
0.000000
41
1.000000
50
0.000000
71
0
42
2.500000
3
txt
4

0
ENDTAB
0
TABLE
2
LAYER
70
5
0
LAYER
2
0
70
0
62
7
6
CONTINUOUS
0
LAYER
2
墙体
70
0
62
7
6
CONTINUOUS
0
LAYER
2
门窗
70
0
62
5
6
CONTINUOUS
0
LAYER
2
标注
70
0
62
1
6
CONTINUOUS
0
LAYER
2
图框
70
0
62
8
6
CONTINUOUS
0
ENDTAB
0
ENDSEC
0
SECTION
2
ENTITIES
0
POLYLINE
8
墙体
66
1
10
0.000000
20
0.000000
30
0.000000
70
1
0
VERTEX
8
墙体
10
0.000000
20
0.000000
30
0.000000
0
VERTEX
8
墙体
10
12000.000000
20
0.000000
30
0.000000
0
VERTEX
8
墙体
10
12000.000000
20
7200.000000
30
0.000000
0
VERTEX
8
墙体
10
0.000000
20
7200.000000
30
0.000000
0
SEQEND
8
墙体
0
LINE
8
墙体
10
5000.000000
20
0.000000
30
0.000000
11
5000.000000
21
7200.000000
31
0.000000
0
POLYLINE
8
门窗
66
1
10
0.000000
20
0.000000
30
0.000000
70
1
0
VERTEX
8
门窗
10
800.000000
20
7100.000000
30
0.000000
0
VERTEX
8
门窗
10
2300.000000
20
7100.000000
30
0.000000
0
VERTEX
8
门窗
10
2300.000000
20
7300.000000
30
0.000000
0
VERTEX
8
门窗
10
800.000000
20
7300.000000
30
0.000000
0
SEQEND
8
门窗
0
POLYLINE
8
门窗
66
1
10
0.000000
20
0.000000
30
0.000000
70
1
0
VERTEX
8
门窗
10
2800.000000
20
7100.000000
30
0.000000
0
VERTEX
8
门窗
10
4300.000000
20
7100.000000
30
0.000000
0
VERTEX
8
门窗
10
4300.000000
20
7300.000000
30
0.000000
0
VERTEX
8
门窗
10
2800.000000
20
7300.000000
30
0.000000
0
SEQEND
8
门窗
0
POLYLINE
8
门窗
66
1
10
0.000000
20
0.000000
30
0.000000
70
1
0
VERTEX
8
门窗
10
6000.000000
20
7100.000000
30
0.000000
0
VERTEX
8
门窗
10
7500.000000
20
7100.000000
30
0.000000
0
VERTEX
8
门窗
10
7500.000000
20
7300.000000
30
0.000000
0
VERTEX
8
门窗
10
6000.000000
20
7300.000000
30
0.000000
0
SEQEND
8
门窗
0
POLYLINE
8
门窗
66
1
10
0.000000
20
0.000000
30
0.000000
70
1
0
VERTEX
8
门窗
10
9000.000000
20
7100.000000
30
0.000000
0
VERTEX
8
门窗
10
10500.000000
20
7100.000000
30
0.000000
0
VERTEX
8
门窗
10
10500.000000
20
7300.000000
30
0.000000
0
VERTEX
8
门窗
10
9000.000000
20
7300.000000
30
0.000000
0
SEQEND
8
门窗
0
TEXT
8
标注
10
1550.000000
20
6700.000000
30
0.000000
40
250.000000
1
C1
50
0.000000
7
STANDARD
72
1
11
1550.000000
21
6700.000000
31
0.000000
0
TEXT
8
标注
10
3550.000000
20
6700.000000
30
0.000000
40
250.000000
1
C2
50
0.000000
7
STANDARD
72
1
11
3550.000000
21
6700.000000
31
0.000000
0
TEXT
8
标注
10
6750.000000
20
6700.000000
30
0.000000
40
250.000000
1
C2
50
0.000000
7
STANDARD
72
1
11
6750.000000
21
6700.000000
31
0.000000
0
CIRCLE
8
0
10
11000.000000
20
600.000000
30
0.000000
40
300.000000
0
TEXT
8
图框
10
6000.000000
20
300.000000
30
0.000000
40
300.000000
1
办公层平面图 A-101
50
0.000000
7
STANDARD
72
1
11
6000.000000
21
300.000000
31
0.000000
0
ENDSEC
0
EOF
