0
SECTION
2
HEADER
9
$ACADVER
1
AC1009
9
$INSBASE
10
0.000000
20
0.000000
30
0.000000
9
$EXTMIN
10
0.000000
20
0.000000
30
0.000000
9
$EXTMAX
10
12000.000000
20
7300.000000
30
0.000000
0
ENDSEC
0
SECTION
2
TABLES
0
TABLE
2
LAYER
70
3
0
LAYER
2
0
70
0
62
7
6
CONTINUOUS
0
LAYER
2
墙体
70
0
62
7
6
CONTINUOUS
0
LAYER
2
门窗
70
0
62
5
6
CONTINUOUS
0
ENDTAB
0
ENDSEC
0
SECTION
2
BLOCKS
0
BLOCK
8
0
2
C-1500
70
2
10
0.000000
20
0.000000
30
0.000000
3
C-1500
0
POLYLINE
8
0
66
1
70
1
0
VERTEX
8
0
10
0.000000
20
0.000000
30
0.000000
0
VERTEX
8
0
10
1500.000000
20
0.000000
30
0.000000
0
VERTEX
8
0
10
1500.000000
20
200.000000
30
0.000000
0
VERTEX
8
0
10
0.000000
20
200.000000
30
0.000000
0
SEQEND
8
0
0
ATTDEF
8
0
10
600.000000
20
-400.000000
30
0.000000
40
250.000000
1
C0
3
编号
2
NUMBER
70
0
0
ENDBLK
8
0
0
ENDSEC
0
SECTION
2
ENTITIES
0
POLYLINE
8
墙体
66
1
70
1
0
VERTEX
8
墙体
10
0.000000
20
0.000000
30
0.000000
0
VERTEX
8
墙体
10
12000.000000
20
0.000000
30
0.000000
0
VERTEX
8
墙体
10
12000.000000
20
7200.000000
30
0.000000
0
VERTEX
8
墙体
10
0.000000
20
7200.000000
30
0.000000
0
SEQEND
8
墙体
0
INSERT
8
门窗
66
1
2
C-1500
10
800.000000
20
7100.000000
30
0.000000
0
ATTRIB
8
门窗
10
1400.000000
20
6700.000000
30
0.000000
40
250.000000
1
C1
2
NUMBER
70
0
0
SEQEND
8
门窗
0
INSERT
8
门窗
66
1
2
C-1500
10
2800.000000
20
7100.000000
30
0.000000
0
ATTRIB
8
门窗
10
3400.000000
20
6700.000000
30
0.000000
40
250.000000
1
C2
2
NUMBER
70
0
0
SEQEND
8
门窗
0
INSERT
8
门窗
66
1
2
C-1500
10
6000.000000
20
7100.000000
30
0.000000
0
ATTRIB
8
门窗
10
6600.000000
20
6700.000000
30
0.000000
40
250.000000
1
C3
2
NUMBER
70
0
0
SEQEND
8
门窗
0
INSERT
8
门窗
66
1
2
C-1500
10
9000.000000
20
7100.000000
30
0.000000
0
ATTRIB
8
门窗
10
9600.000000
20
6700.000000
30
0.000000
40
250.000000
1
C1
2
NUMBER
70
0
0
SEQEND
8
门窗
0
ENDSEC
0
EOF
