0
SECTION
2
HEADER
9
$ACADVER
1
AC1015
9
$INSBASE
10
0.000000
20
0.000000
30
0.000000
9
$EXTMIN
10
0.000000
20
0.000000
30
0.000000
9
$EXTMAX
10
12000.000000
20
7300.000000
30
0.000000
0
ENDSEC
0
SECTION
2
TABLES
0
TABLE
2
LAYER
70
3
0
LAYER
2
0
70
0
62
7
6
CONTINUOUS
0
LAYER
2
墙体
70
0
62
7
6
CONTINUOUS
0
LAYER
2
结构
70
0
62
3
6
CONTINUOUS
0
LAYER
2
门窗
70
0
62
5
6
CONTINUOUS
0
ENDTAB
0
ENDSEC
0
SECTION
2
BLOCKS
0
BLOCK
5
1F
8
0
2
C-1500
70
2
10
0.000000
20
0.000000
30
0.000000
3
C-1500
0
POLYLINE
8
0
66
1
70
1
0
VERTEX
8
0
10
0.000000
20
0.000000
30
0.000000
0
VERTEX
8
0
10
1500.000000
20
0.000000
30
0.000000
0
VERTEX
8
0
10
1500.000000
20
200.000000
30
0.000000
0
VERTEX
8
0
10
0.000000
20
200.000000
30
0.000000
0
SEQEND
8
0
0
ATTDEF
5
1A
8
0
10
600.000000
20
-400.000000
30
0.000000
40
250.000000
1
C0
3
编号
2
NUMBER
70
0
0
ENDBLK
8
0
0
ENDSEC
0
SECTION
2
ENTITIES
0
POLYLINE
5
WALL1
8
墙体
66
1
70
1
0
VERTEX
5
WALL1-0
8
墙体
10
0.000000
20
0.000000
30
0.000000
0
VERTEX
5
WALL1-12000
8
墙体
10
12000.000000
20
0.000000
30
0.000000
0
VERTEX
5
WALL1-12000
8
墙体
10
12000.000000
20
7200.000000
30
0.000000
0
VERTEX
5
WALL1-0
8
墙体
10
0.000000
20
7200.000000
30
0.000000
0
SEQEND
5
WALL1-s
8
墙体
0
POLYLINE
5
B01
8
结构
66
1
70
1
0
VERTEX
5
B01-v1000
8
结构
10
1000.000000
20
0.000000
30
0.000000
0
VERTEX
5
B01-v2000
8
结构
10
2000.000000
20
0.000000
30
0.000000
0
VERTEX
5
B01-v2000
8
结构
10
2000.000000
20
300.000000
30
0.000000
0
VERTEX
5
B01-v1000
8
结构
10
1000.000000
20
300.000000
30
0.000000
0
SEQEND
5
B01-s
8
结构
0
POLYLINE
5
B02
8
结构
66
1
70
1
0
VERTEX
5
B02-v5000
8
结构
10
5000.000000
20
0.000000
30
0.000000
0
VERTEX
5
B02-v6000
8
结构
10
6000.000000
20
0.000000
30
0.000000
0
VERTEX
5
B02-v6000
8
结构
10
6000.000000
20
300.000000
30
0.000000
0
VERTEX
5
B02-v5000
8
结构
10
5000.000000
20
300.000000
30
0.000000
0
SEQEND
5
B02-s
8
结构
0
POLYLINE
5
B03
8
结构
66
1
70
1
0
VERTEX
5
B03-v8000
8
结构
10
8000.000000
20
0.000000
30
0.000000
0
VERTEX
5
B03-v9000
8
结构
10
9000.000000
20
0.000000
30
0.000000
0
VERTEX
5
B03-v9000
8
结构
10
9000.000000
20
300.000000
30
0.000000
0
VERTEX
5
B03-v8000
8
结构
10
8000.000000
20
300.000000
30
0.000000
0
SEQEND
5
B03-s
8
结构
0
POLYLINE
5
B04
8
结构
66
1
70
1
0
VERTEX
5
B04-v10000
8
结构
10
10000.000000
20
0.000000
30
0.000000
0
VERTEX
5
B04-v11000
8
结构
10
11000.000000
20
0.000000
30
0.000000
0
VERTEX
5
B04-v11000
8
结构
10
11000.000000
20
300.000000
30
0.000000
0
VERTEX
5
B04-v10000
8
结构
10
10000.000000
20
300.000000
30
0.000000
0
SEQEND
5
B04-s
8
结构
0
INSERT
5
W01
8
门窗
66
1
2
C-1500
10
800.000000
20
7100.000000
30
0.000000
0
ATTRIB
5
W01-a
8
门窗
10
1400.000000
20
6700.000000
30
0.000000
40
250.000000
1
C-01
2
NUMBER
70
0
0
SEQEND
5
W01-seq
8
门窗
0
INSERT
5
W02
8
门窗
66
1
2
C-1500
10
2800.000000
20
7100.000000
30
0.000000
0
ATTRIB
5
W02-a
8
门窗
10
3400.000000
20
6700.000000
30
0.000000
40
250.000000
1
C-02
2
NUMBER
70
0
0
SEQEND
5
W02-seq
8
门窗
0
ENDSEC
0
EOF
